<?xml version="1.0" encoding="UTF-8"?>
<svg id="Livello_1" data-name="Livello 1" xmlns="http://www.w3.org/2000/svg" xmlns:xlink="http://www.w3.org/1999/xlink" viewBox="0 0 227.52 254.96">
  <defs>
    <style>
      .cls-1 {
        fill: url(#Sfumatura_senza_nome_37);
      }

      .cls-1, .cls-2, .cls-3, .cls-4, .cls-5, .cls-6 {
        stroke-width: 0px;
      }

      .cls-2 {
        fill: url(#New_Gradient_Swatch_1-3);
      }

      .cls-3 {
        fill: url(#New_Gradient_Swatch_1);
      }

      .cls-4 {
        fill: url(#New_Gradient_Swatch_1-2);
      }

      .cls-5 {
        fill: url(#Sfumatura_senza_nome_94);
      }

      .cls-6 {
        fill: url(#Sfumatura_senza_nome_175);
      }
    </style>
    <linearGradient id="New_Gradient_Swatch_1" data-name="New Gradient Swatch 1" x1="198.47" y1="249.67" x2="235.69" y2="185.2" gradientUnits="userSpaceOnUse">
      <stop offset="0" stop-color="#a52348"/>
      <stop offset=".26" stop-color="#8d1338"/>
      <stop offset=".43" stop-color="#840e32"/>
      <stop offset=".45" stop-color="#8e0d30"/>
      <stop offset=".54" stop-color="#b2092c"/>
      <stop offset=".62" stop-color="#cd0729"/>
      <stop offset=".69" stop-color="#dd0527"/>
      <stop offset=".75" stop-color="#e30527"/>
    </linearGradient>
    <linearGradient id="Sfumatura_senza_nome_94" data-name="Sfumatura senza nome 94" x1="154.18" y1="37.4" x2="154.18" y2="37.39" gradientUnits="userSpaceOnUse">
      <stop offset=".06" stop-color="#831d17"/>
      <stop offset=".07" stop-color="#8d1a18"/>
      <stop offset=".1" stop-color="#a7131d"/>
      <stop offset=".14" stop-color="#bd0e20"/>
      <stop offset=".19" stop-color="#ce0a23"/>
      <stop offset=".24" stop-color="#da0725"/>
      <stop offset=".32" stop-color="#e10526"/>
      <stop offset=".54" stop-color="#e30527"/>
      <stop offset=".57" stop-color="#e30d28"/>
      <stop offset=".7" stop-color="#e73330"/>
      <stop offset=".82" stop-color="#e94f36"/>
      <stop offset=".92" stop-color="#eb6039"/>
      <stop offset="1" stop-color="#ec663b"/>
    </linearGradient>
    <linearGradient id="Sfumatura_senza_nome_175" data-name="Sfumatura senza nome 175" x1="196.49" y1="234.36" x2="196.5" y2="234.37" gradientUnits="userSpaceOnUse">
      <stop offset=".19" stop-color="#4d2640"/>
      <stop offset=".27" stop-color="#601d3a"/>
      <stop offset=".38" stop-color="#741436"/>
      <stop offset=".49" stop-color="#800f32"/>
      <stop offset=".6" stop-color="#840e32"/>
      <stop offset=".94" stop-color="#e30527"/>
    </linearGradient>
    <linearGradient id="New_Gradient_Swatch_1-2" data-name="New Gradient Swatch 1" x1="121.41" y1="2.97" x2="24.11" y2="171.5" xlink:href="#New_Gradient_Swatch_1"/>
    <linearGradient id="Sfumatura_senza_nome_37" data-name="Sfumatura senza nome 37" x1="101.82" y1="127.48" x2="207.04" y2="127.48" gradientUnits="userSpaceOnUse">
      <stop offset=".14" stop-color="#840e32"/>
      <stop offset=".17" stop-color="#8e0d30"/>
      <stop offset=".3" stop-color="#b2092c"/>
      <stop offset=".41" stop-color="#cd0729"/>
      <stop offset=".52" stop-color="#dd0527"/>
      <stop offset=".6" stop-color="#e30527"/>
      <stop offset=".77" stop-color="#be163a"/>
      <stop offset=".91" stop-color="#a52348"/>
    </linearGradient>
    <linearGradient id="New_Gradient_Swatch_1-3" data-name="New Gradient Swatch 1" x1="38.74" y1="192.26" x2="-6.58" y2="113.76" xlink:href="#New_Gradient_Swatch_1"/>
  </defs>
  <path class="cls-3" d="m196.73,236.13c3.52-4.27,7.02-9.17,10.26-14.76,10.39-17.9,13.38-34.62,14.36-44.15l.03-.27h-.16c1.5,3.2,2.75,6.53,3.73,9.98,2.18,7.69,2.39,13.86,2.51,18.43.1,3.59.25,10.39-1.36,19.13-1.83,9.96-4.72,26.06-14.76,29.51-1.73.59-3.26.67-4.22.66-.92-.5-2.26-1.35-3.52-2.74-1.05-1.16-1.63-2.24-2.1-3.12-.69-1.29-.66-1.58-1.9-4.69-.85-2.12-.95-2.19-1.45-3.54-.64-1.7-1.1-3.21-1.42-4.43Z"/>
  <line class="cls-5" x1="154.18" y1="37.39" x2="154.18" y2="37.4"/>
  <line class="cls-6" x1="196.5" y1="234.36" x2="196.5" y2="234.37"/>
  <path class="cls-4" d="m115.97,0s-.09,0-.14,0c-2.14,0-24.83.06-27.3.07-.03,0-.06,0-.1.01-.51.12-1.21.34-1.53.95-.15.29-.23.53-.27.65-1.22,3.64-57.1,165.92-57.09,165.87,0,0,0,0,0,0,1.22,1.48,2.77,3.29,4.62,5.29,1.09,1.18,2.67,2.89,4.85,4.96,2.59,2.47,4.67,4.17,7.69,6.63.09.07.18.15.27.22,2.07,1.69,5.19.79,6.06-1.73l.07-.2s3.23-9.39,3.25-9.44c.03-.07,5.8-16.87,5.87-17.07,13.24-38.49,26.48-76.99,39.72-115.48,0,0,6.87-19.97,12.73-37.02,0,0,.46-1.33.46-1.33,0,0,.36-1.02.36-1.02.06-.17.13-.35.2-.56,0,0,.07-.26.22-.55.04-.07.07-.11.15-.18s.22-.03.22-.04c0,0-.05-.02-.1-.02-.09,0-.15,0-.25,0Z"/>
  <path class="cls-1" d="m174.9,250.81c.49.7,1.35,1.76,2.74,2.58,1.26.75,2.5,1.04,4.69,1.29,2.79.31,4.97.3,6.65.28,4.4-.06,6.17-.21,9.93-.27,2.25-.03,4.08-.02,5.22,0v-.02c.97.02,1.95.04,2.92.05-1.22-.67-2.97-1.84-4.39-3.83-.76-1.07-1.16-1.99-1.48-2.74-2.62-6.2-3.36-8.45-3.36-8.45-1.35-4.07-2.53-7.84-3.57-11.24C168.3,152.37,142.35,76.29,116.4.2c-.09-.26-.46-.27-.55,0-2.38,6.57-4.81,13.88-7.16,20.29-2.52,6.85-4.24,13.78-6.86,20.41v.14c36.57,106.85,63.26,184.66,65.61,191.49.62,1.8,2.15,6.22,4.57,11.87,1.2,2.81,2.25,5.05,2.89,6.41Z"/>
  <path class="cls-2" d="m6.26,106.36c.05.02.03.23.03.27-.1,1.11.77,14.25,14.36,44.15,2.45,5.39,5.09,10.83,9.14,16.46,2.46,3.42,4.78,6,5.46,6.75,2.13,2.34,3.84,3.88,6.56,6.35,1.63,1.48,2.03,1.77,2.34,1.99,2.69,1.85,5.52,2.36,7.46,2.5-.13.08-.35.21-.63.35-1.45.75-2.79.93-3.56,1.01-12.51,1.24-22.88-.99-22.88-.99-.51-.11-.93-.2-1.17-.26-.21-.07-.52-.19-.9-.34-11.31-4.63-15.35-18.42-18.72-28.04C2.42,152.71.04,144.78,0,134.52c-.01-3.55.01-10.37,2.51-18.45,1.1-3.54,3.44-9.8,3.74-9.71Z"/>
</svg>