<?xml version="1.0" encoding="UTF-8"?>
<svg id="Layer_1" data-name="Layer 1" xmlns="http://www.w3.org/2000/svg" xmlns:xlink="http://www.w3.org/1999/xlink" viewBox="0 0 200.69 376.78">
  <defs>
    <style>
      .cls-1 {
        fill: url(#linear-gradient);
      }

      .cls-1, .cls-2, .cls-3, .cls-4, .cls-5, .cls-6, .cls-7, .cls-8 {
        stroke-width: 0px;
      }

      .cls-2 {
        fill: #58595b;
      }

      .cls-3 {
        fill: #e6e7e8;
      }

      .cls-4 {
        fill: none;
      }

      .cls-5 {
        fill: url(#linear-gradient-2);
      }

      .cls-6 {
        fill: url(#radial-gradient-2);
      }

      .cls-7 {
        fill: url(#radial-gradient);
      }

      .cls-8 {
        fill: url(#radial-gradient-3);
      }
    </style>
    <radialGradient id="radial-gradient" cx="95.62" cy="129.07" fx="95.62" fy="129.07" r="32.28" gradientUnits="userSpaceOnUse">
      <stop offset="0" stop-color="#fff"/>
      <stop offset="1" stop-color="#231f20"/>
    </radialGradient>
    <radialGradient id="radial-gradient-2" cx="130.58" cy="182.55" fx="130.58" fy="182.55" r="138.21" gradientUnits="userSpaceOnUse">
      <stop offset="0" stop-color="#fff"/>
      <stop offset="1" stop-color="#231f20"/>
    </radialGradient>
    <linearGradient id="linear-gradient" x1="0" y1="290.17" x2="120.29" y2="290.17" gradientUnits="userSpaceOnUse">
      <stop offset=".15" stop-color="#231f20"/>
      <stop offset=".25" stop-color="#272324"/>
      <stop offset=".36" stop-color="#343131"/>
      <stop offset=".48" stop-color="#4a4748"/>
      <stop offset=".61" stop-color="#696667"/>
      <stop offset=".73" stop-color="#918f8f"/>
      <stop offset=".86" stop-color="#c1c0c0"/>
      <stop offset=".99" stop-color="#f9f9f9"/>
      <stop offset="1" stop-color="#fff"/>
    </linearGradient>
    <linearGradient id="linear-gradient-2" x1="117.77" y1="96.1" x2="200.69" y2="96.1" gradientUnits="userSpaceOnUse">
      <stop offset="0" stop-color="#fff"/>
      <stop offset=".13" stop-color="#fbfbfb"/>
      <stop offset=".24" stop-color="#f1f1f1"/>
      <stop offset=".33" stop-color="#e0e0e0"/>
      <stop offset=".43" stop-color="#c8c7c7"/>
      <stop offset=".52" stop-color="#a9a7a8"/>
      <stop offset=".61" stop-color="#838181"/>
      <stop offset=".7" stop-color="#575454"/>
      <stop offset=".78" stop-color="#242021"/>
      <stop offset=".78" stop-color="#231f20"/>
    </linearGradient>
    <radialGradient id="radial-gradient-3" cx="159.05" cy="152.62" fx="159.05" fy="152.62" r="41.82" gradientUnits="userSpaceOnUse">
      <stop offset="0" stop-color="#fff"/>
      <stop offset=".89" stop-color="#231f20"/>
    </radialGradient>
  </defs>
  <path class="cls-2" d="m200.63,90.58c-.05-1.78-.14-3.54-.26-5.28v-.05c.02-.16.03-.34.04-.5.11,1.93.19,3.87.22,5.83Z"/>
  <path class="cls-7" d="m103.79,150.71c-.08-.58-.17-1.15-.26-1.72-4.3-6.84-8.01-14.79-10.96-23.59-3.98-11.83-6.6-25.2-7.5-39.46-.03-.39-.06-.79-.08-1.19-.02.32-.03.64-.04.96-.16,2.97-.24,5.98-.24,9.02,0,31.84,8.51,60.22,21.82,78.67-.72-7.85-1.63-15.43-2.74-22.69Z"/>
  <path class="cls-6" d="m200.41,84.75c-.01.16-.02.34-.04.5-2.7-40.1-22.35-71.22-46.18-71.22-1.94,0-3.86.21-5.74.62-22.63,4.83-40.23,37.9-40.73,78.28v.02c-.02.59-.02,1.18-.02,1.78,0,6.69.47,13.2,1.36,19.42,0,.01.01.02.01.03.96,6.77,2.41,13.2,4.29,19.17h0c1.79,9.35,3.27,19.21,4.39,29.49h0c.01.08.02.16.02.23l-.06-.07-.12-.13c.11,1.02.22,2.04.32,3.07.05.45.09.9.13,1.35.24,2.4.46,4.82.65,7.26.34,4.15.62,8.35.83,12.61.05.04.11.09.17.13.27,5.35.46,10.78.54,16.28-1.35,89.3-27.41,160.63-59.47,161.54,26.36-1.04,47.61-67.98,47.61-150.39,0-14.33-.64-28.19-1.84-41.32-.72-7.85-1.63-15.43-2.74-22.69-.08-.58-.17-1.15-.26-1.72-.75-4.81-1.58-9.48-2.49-13.98v-.02c-.77-3.03-1.45-6.14-2.03-9.32,0-.01,0-.02-.01-.03-1.58-8.48-2.52-17.46-2.73-26.76-.02-.69-.03-1.38-.04-2.07s-.02-1.38-.02-2.08.01-1.39.02-2.08.02-1.38.04-2.07c.08-3.81.29-7.57.62-11.26.39-4.43.95-8.77,1.67-12.99h0c4.69-27.75,16.08-50.52,30.92-62.68,5.28-2.38,10.87-3.65,16.66-3.65,11,0,21.29,4.6,30.09,12.61h0c13.34,16.43,22.49,42.38,24.18,72.14Z"/>
  <path class="cls-2" d="m200.37,101.57c-.11,2.78-.26,5.55-.49,8.26-2.33,21.33-9.49,39.69-19.44,51.52-.01.02-.03.04-.05.06-3.96,4.7-8.36,8.36-13.07,10.76.34-.19.68-.39,1.02-.61,3.55-2.2,6.92-4.91,10.07-8.07.04-.04.07-.07.1-.11,10.8-11.64,18.65-30.74,21.16-53.15.32-2.84.56-5.73.7-8.66Z"/>
  <path class="cls-2" d="m200.63,90.58c-.05-1.78-.14-3.54-.26-5.28v-.05c.02-.16.03-.34.04-.5.11,1.93.19,3.87.22,5.83Z"/>
  <path class="cls-1" d="m120.23,203.57c-1.35,89.3-27.41,160.63-59.47,161.54-.21.01-.41.01-.62.01s-.41,0-.62-.01C27.47,364.2,1.41,292.87.06,203.57c-.04,2.38-.06,4.78-.06,7.19,0,91.69,26.93,166.02,60.14,166.02s60.15-74.33,60.15-166.02c0-2.41-.02-4.81-.06-7.19Z"/>
  <line class="cls-4" x1="117.77" y1="163.07" x2="117.71" y2="163"/>
  <path class="cls-4" d="m118.03,165.52c-.02-.13-.04-.28-.06-.43"/>
  <path class="cls-5" d="m200.69,94.73c0,.7,0,1.39-.02,2.08-.01.69-.02,1.38-.04,2.07-.11,3.72-.36,7.38-.75,10.95.23-2.71.38-5.48.49-8.26-.14,2.93-.38,5.82-.7,8.66-2.51,22.41-10.36,41.51-21.16,53.15-.03.04-.06.07-.1.11-3.15,3.16-6.52,5.87-10.07,8.07-.34.22-.68.42-1.02.61-6.57,3.88-13.71,6-21.18,6-10.11,0-19.62-3.89-27.92-10.73-.02-.23-.05-.49-.07-.76-.03-.27-.06-.53-.08-.76-.01-.12-.02-.25-.04-.39h0c-.04-.45-.1-.97-.14-1.42-.02-.14-.03-.27-.05-.39-.04-.38-.07-.65-.07-.65.43.46.85.91,1.29,1.35,6.34,6.46,13.64,10.39,21.45,10.97.27.01.53.03.8.04.41.02.82.03,1.23.03.8,0,1.6-.04,2.39-.1.36-.02.73-.05,1.09-.09-.31.03-.62.05-.93.07,1.13-.1,2.25-.27,3.36-.52,22.97-4.91,40.74-38.9,40.74-80.09s-17.77-75.17-40.74-80.08c1.88-.41,3.8-.62,5.74-.62,23.83,0,43.48,31.12,46.18,71.22v.05c.12,1.74.21,3.5.26,5.28.02.69.03,1.38.04,2.07.02.69.02,1.38.02,2.08Z"/>
  <path class="cls-2" d="m200.37,101.57c-.11,2.78-.26,5.55-.49,8.26l-.21.4c.32-2.84.56-5.73.7-8.66Z"/>
  <line class="cls-4" x1="117.59" y1="162.87" x2="117.71" y2="163"/>
  <path class="cls-2" d="m200.37,101.57c.04-.89.08-1.77.1-2.67-.02.9-.07,1.78-.1,2.67Z"/>
  <path class="cls-3" d="m103.53,148.99c-4.3-6.84-8.01-14.79-10.96-23.59,2.77,9.42,6.58,17.97,11.22,25.31-.08-.58-.17-1.15-.26-1.72Z"/>
  <path class="cls-8" d="m199.88,109.83c-.91,10.53-2.76,20.52-5.4,29.71-8.68,30.29-25.9,51.91-46.19,55.38-1.89.32-3.81.49-5.75.49-7.97,0-15.57-2.8-22.49-7.85-.12-.09-.24-.18-.36-.27-.06-.04-.12-.09-.17-.13-.21-4.26-.49-8.46-.83-12.61-.19-2.44-.23-4.71-.47-7.11,8.3,6.84,17.81,10.73,27.92,10.73,7.47,0,14.61-2.12,21.18-6,4.71-2.4,9.11-6.06,13.07-10.76.02-.02.04-.04.05-.06,9.95-11.83,17.11-30.19,19.44-51.52Z"/>
  <path class="cls-2" d="m200.37,101.57c-.11,2.78-.26,5.55-.49,8.26-2.33,21.33-9.49,39.69-19.44,51.52-.01.02-.03.04-.05.06-.62.68-1.24,1.33-1.88,1.97,10.8-11.64,18.65-30.74,21.16-53.15.32-2.84.56-5.73.7-8.66Z"/>
  <path class="cls-2" d="m200.63,90.58c-.05-1.78-.14-3.54-.26-5.28v-.05c.02-.16.03-.34.04-.5.11,1.93.19,3.87.22,5.83Z"/>
</svg>